<?xml version="1.0" standalone="no"?>
<!DOCTYPE svg PUBLIC "-//W3C//DTD SVG 20010904//EN"
 "http://www.w3.org/TR/2001/REC-SVG-20010904/DTD/svg10.dtd">
<svg version="1.0" xmlns="http://www.w3.org/2000/svg"
 width="250.000000pt" height="119.000000pt" viewBox="0 0 250.000000 119.000000"
 preserveAspectRatio="xMidYMid meet">

<g transform="translate(0.000000,119.000000) scale(0.100000,-0.100000)"
fill="#0077FF"  stroke="none">

<path d="M720 605 l0 -335 60 0 60 0 0 193 0 192 102 -192 102 -193 51 0 50 0
100 191 c80 151 101 184 103 162 2 -27 52 -133 62 -133 3 0 17 23 33 50 27 49
27 53 27 225 l0 175 -54 0 c-31 0 -58 -5 -64 -12 -5 -7 -65 -118 -133 -246
-67 -127 -125 -230 -127 -227 -3 3 -62 112 -131 243 l-126 237 -57 3 -58 3 0
-336z"/>
<path d="M1037 933 c-4 -3 -7 -81 -7 -172 l0 -166 33 -57 33 -58 32 65 c18 36
32 72 32 81 0 8 4 13 8 10 5 -3 23 25 41 63 l33 67 -47 87 -47 87 -52 0 c-29
0 -56 -3 -59 -7z"/>
<path d="M1557 723 c-64 -120 -121 -230 -128 -245 -7 -16 -15 -28 -18 -28 -4
0 -23 33 -42 72 l-36 73 -36 -71 -35 -70 50 -93 50 -92 50 3 50 3 97 182 96
182 5 -182 5 -182 63 -3 62 -3 -2 333 -3 333 -57 3 -56 3 -115 -218z"/>
<path d="M270 673 c-124 -68 -235 -129 -248 -136 -21 -12 -9 -20 165 -115 104
-56 216 -118 251 -137 l63 -35 -3 57 -3 56 -130 72 c-71 39 -138 75 -147 81
-14 8 9 24 128 89 81 43 148 84 151 91 2 6 3 32 1 56 l-3 45 -225 -124z"/>
<path d="M2002 743 l3 -56 130 -72 c72 -39 138 -75 147 -81 14 -8 -9 -24 -128
-89 -81 -43 -148 -84 -151 -91 -2 -6 -3 -32 -1 -56 l3 -45 225 124 c124 68
235 129 248 136 21 12 9 20 -165 115 -104 56 -216 118 -251 137 l-63 35 3 -57z"/>
</g>
</svg>
