<svg width="212" height="74" viewBox="0 0 212 74" fill="none" xmlns="http://www.w3.org/2000/svg">
<path d="M187.669 36.9999C187.669 41.4143 185.625 45.739 181.684 49.804C177.737 53.8761 171.952 57.6119 164.687 60.7817C150.162 67.1194 129.991 71.0768 107.631 71.0768C85.2709 71.0768 65.0995 67.1194 50.5742 60.7817C43.3093 57.6119 37.5245 53.8761 33.577 49.804C29.6364 45.739 27.5923 41.4143 27.5923 36.9999C27.5923 32.5855 29.6364 28.2608 33.577 24.1958C37.5245 20.1236 43.3093 16.3879 50.5742 13.218C65.0995 6.88036 85.2709 2.92297 107.631 2.92297C129.991 2.92297 150.162 6.88036 164.687 13.218C171.952 16.3879 177.737 20.1236 181.684 24.1958C185.625 28.2608 187.669 32.5855 187.669 36.9999Z" stroke="url(#paint0_linear)" stroke-width="3"/>
<g filter="url(#filter0_d)">
<path d="M84.5742 44H82.0156V35.6602L77.5137 43.5801C77.403 43.7819 77.2467 43.9349 77.0449 44.0391C76.8496 44.1432 76.638 44.1953 76.4102 44.1953C76.1888 44.1953 75.9805 44.1432 75.7852 44.0391C75.5964 43.9349 75.4466 43.7819 75.3359 43.5801L70.8145 35.6602V44H68.2754V31.0801C68.2754 30.7871 68.36 30.5267 68.5293 30.2988C68.7051 30.071 68.9329 29.918 69.2129 29.8398C69.3496 29.8073 69.4863 29.7975 69.623 29.8105C69.7598 29.8171 69.89 29.8464 70.0137 29.8984C70.1439 29.944 70.2611 30.0124 70.3652 30.1035C70.4694 30.1882 70.5573 30.2923 70.6289 30.416L76.4102 40.4648L82.1914 30.416C82.3411 30.1686 82.5462 29.9928 82.8066 29.8887C83.0736 29.7845 83.3503 29.7682 83.6367 29.8398C83.9102 29.918 84.1348 30.071 84.3105 30.2988C84.4863 30.5267 84.5742 30.7871 84.5742 31.0801V44ZM96.4297 35.9824H90.7168C90.3717 35.9824 90.1113 36.0703 89.9355 36.2461C89.7598 36.4154 89.6719 36.666 89.6719 36.998V44H87.1328V36.998C87.1328 36.5618 87.1882 36.1712 87.2988 35.8262C87.4095 35.4811 87.556 35.1784 87.7383 34.918C87.9271 34.651 88.1419 34.4264 88.3828 34.2441C88.6237 34.0553 88.8743 33.9023 89.1348 33.7852C89.4017 33.668 89.6686 33.5833 89.9355 33.5312C90.209 33.4727 90.4629 33.4434 90.6973 33.4434H96.4297V35.9824ZM99.3887 42.7207C99.3887 42.8965 99.3529 43.0625 99.2812 43.2188C99.2161 43.3685 99.125 43.502 99.0078 43.6191C98.8971 43.7298 98.7637 43.8177 98.6074 43.8828C98.4577 43.9479 98.2982 43.9805 98.1289 43.9805C97.9531 43.9805 97.7871 43.9479 97.6309 43.8828C97.4811 43.8177 97.3477 43.7298 97.2305 43.6191C97.1198 43.502 97.0319 43.3685 96.9668 43.2188C96.9017 43.0625 96.8691 42.8965 96.8691 42.7207C96.8691 42.5514 96.9017 42.3919 96.9668 42.2422C97.0319 42.0859 97.1198 41.9525 97.2305 41.8418C97.3477 41.7246 97.4811 41.6335 97.6309 41.5684C97.7871 41.4967 97.9531 41.4609 98.1289 41.4609C98.2982 41.4609 98.4577 41.4967 98.6074 41.5684C98.7637 41.6335 98.8971 41.7246 99.0078 41.8418C99.125 41.9525 99.2161 42.0859 99.2812 42.2422C99.3529 42.3919 99.3887 42.5514 99.3887 42.7207ZM124.457 44H121.898V35.6602L117.396 43.5801C117.286 43.7819 117.13 43.9349 116.928 44.0391C116.732 44.1432 116.521 44.1953 116.293 44.1953C116.072 44.1953 115.863 44.1432 115.668 44.0391C115.479 43.9349 115.329 43.7819 115.219 43.5801L110.697 35.6602V44H108.158V31.0801C108.158 30.7871 108.243 30.5267 108.412 30.2988C108.588 30.071 108.816 29.918 109.096 29.8398C109.232 29.8073 109.369 29.7975 109.506 29.8105C109.643 29.8171 109.773 29.8464 109.896 29.8984C110.027 29.944 110.144 30.0124 110.248 30.1035C110.352 30.1882 110.44 30.2923 110.512 30.416L116.293 40.4648L122.074 30.416C122.224 30.1686 122.429 29.9928 122.689 29.8887C122.956 29.7845 123.233 29.7682 123.52 29.8398C123.793 29.918 124.018 30.071 124.193 30.2988C124.369 30.5267 124.457 30.7871 124.457 31.0801V44ZM138.412 36.9395C138.412 37.291 138.35 37.6719 138.227 38.082C138.103 38.4857 137.901 38.8633 137.621 39.2148C137.348 39.5599 136.986 39.8496 136.537 40.084C136.094 40.3184 135.554 40.4355 134.916 40.4355H130.336V38.0234H134.916C135.261 38.0234 135.528 37.9193 135.717 37.7109C135.906 37.4961 136 37.2324 136 36.9199C136 36.5879 135.893 36.3275 135.678 36.1387C135.469 35.9499 135.215 35.8555 134.916 35.8555H130.336C129.991 35.8555 129.724 35.9629 129.535 36.1777C129.346 36.3861 129.252 36.6465 129.252 36.959V40.5039C129.252 40.8424 129.356 41.1061 129.564 41.2949C129.779 41.4837 130.043 41.5781 130.355 41.5781H134.916V44H130.336C129.984 44 129.604 43.9382 129.193 43.8145C128.79 43.6908 128.412 43.4922 128.061 43.2188C127.715 42.9388 127.426 42.5775 127.191 42.1348C126.957 41.6855 126.84 41.1419 126.84 40.5039V36.9395C126.84 36.5879 126.902 36.2103 127.025 35.8066C127.149 35.3965 127.348 35.0189 127.621 34.6738C127.901 34.3223 128.262 34.0293 128.705 33.7949C129.154 33.5605 129.698 33.4434 130.336 33.4434H134.916C135.268 33.4434 135.645 33.5052 136.049 33.6289C136.459 33.7526 136.837 33.9544 137.182 34.2344C137.533 34.5078 137.826 34.8691 138.061 35.3184C138.295 35.7611 138.412 36.3014 138.412 36.9395ZM144.76 44H143.627C143.262 44 142.872 43.9382 142.455 43.8145C142.045 43.6908 141.661 43.4889 141.303 43.209C140.945 42.9225 140.648 42.5547 140.414 42.1055C140.18 41.6497 140.062 41.0931 140.062 40.4355V28.9805H142.602V40.4355C142.602 40.748 142.699 40.9987 142.895 41.1875C143.09 41.3698 143.334 41.4609 143.627 41.4609H144.76V44Z" fill="url(#paint1_linear)"/>
</g>
<defs>
<filter id="filter0_d" x="68.2754" y="28.9805" width="78.4844" height="17.2148" filterUnits="userSpaceOnUse" color-interpolation-filters="sRGB">
<feFlood flood-opacity="0" result="BackgroundImageFix"/>
<feColorMatrix in="SourceAlpha" type="matrix" values="0 0 0 0 0 0 0 0 0 0 0 0 0 0 0 0 0 0 127 0"/>
<feOffset dx="1" dy="1"/>
<feGaussianBlur stdDeviation="0.5"/>
<feColorMatrix type="matrix" values="0 0 0 0 0 0 0 0 0 0 0 0 0 0 0 0 0 0 0.4 0"/>
<feBlend mode="normal" in2="BackgroundImageFix" result="effect1_dropShadow"/>
<feBlend mode="normal" in="SourceGraphic" in2="effect1_dropShadow" result="shape"/>
</filter>
<linearGradient id="paint0_linear" x1="107.631" y1="1.42297" x2="107.631" y2="72.5768" gradientUnits="userSpaceOnUse">
<stop stop-color="#00A3FF"/>
<stop offset="0.359375" stop-color="#42BBFF"/>
<stop offset="1" stop-color="white"/>
</linearGradient>
<linearGradient id="paint1_linear" x1="106" y1="2.96" x2="106" y2="70.0533" gradientUnits="userSpaceOnUse">
<stop offset="0.161458" stop-color="#00A3FF"/>
<stop offset="1" stop-color="white"/>
</linearGradient>
</defs>
</svg>
